<svg width="230" height="230" viewBox="0 0 230 230" fill="none" xmlns="http://www.w3.org/2000/svg">
<g clip-path="url(#clip0)">
<rect width="230" height="230" fill="black"/>
<path d="M108 69C112.97 69 117 64.9706 117 60C117 55.0294 112.97 51 108 51C103.029 51 98.9995 55.0294 98.9995 60C98.9995 64.9706 103.029 69 108 69Z" fill="white"/>
<path d="M153 21H21C17.6863 21 15 23.6863 15 27V135C15 138.314 17.6863 141 21 141H153C156.314 141 159 138.314 159 135V27C159 23.6863 156.314 21 153 21Z" stroke="white" stroke-width="12" stroke-linecap="round" stroke-linejoin="round"/>
<path d="M15 111L57 69L99 111L123 87L159 123" stroke="white" stroke-width="12" stroke-linecap="round" stroke-linejoin="round"/>
<path d="M215.5 156.5L206.5 171.5L176 193.5L141.5 195.5H111H104L74.5 188.5L52 171.5V141.5L62.5 118L87.5 109.5H104L116.5 94.5L133.5 78L161.5 73L195.5 86L215.5 118V156.5Z" fill="black"/>
<path d="M110 193.988H91.9999C86.0437 193.982 80.1569 192.71 74.7301 190.255C69.3033 187.8 64.4607 184.219 60.5238 179.749C56.5868 175.28 53.6456 170.024 51.8952 164.331C50.1449 158.638 49.6255 152.637 50.3715 146.728C51.1175 140.818 53.1119 135.135 56.2223 130.056C59.3326 124.976 63.4878 120.616 68.412 117.265C73.3363 113.914 78.9169 111.649 84.7835 110.62C90.6501 109.591 96.6686 109.821 102.439 111.296" stroke="white" stroke-width="12" stroke-linecap="round" stroke-linejoin="round"/>
<path d="M98 133.988C98.0009 124.482 100.261 115.111 104.594 106.649C108.926 98.187 115.208 90.8757 122.92 85.3175C130.633 79.7593 139.556 76.1133 148.954 74.68C158.352 73.2467 167.956 74.0671 176.975 77.0736C185.994 80.0801 194.169 85.1867 200.827 91.9725C207.485 98.7583 212.436 107.029 215.271 116.103C218.105 125.178 218.743 134.796 217.132 144.165C215.52 153.534 211.705 162.386 206.002 169.992" stroke="white" stroke-width="12" stroke-linecap="round" stroke-linejoin="round"/>
<path d="M126.544 159.445L152 133.988L177.456 159.445" stroke="white" stroke-width="12" stroke-linecap="round" stroke-linejoin="round"/>
<path d="M152 193.988V133.988" stroke="white" stroke-width="12" stroke-linecap="round" stroke-linejoin="round"/>
</g>
<defs>
<clipPath id="clip0">
<rect width="230" height="230" fill="white"/>
</clipPath>
</defs>
</svg>
